<svg xmlns="http://www.w3.org/2000/svg" xmlns:xlink="http://www.w3.org/1999/xlink" width="100" zoomAndPan="magnify" viewBox="0 0 75 74.999997" height="100" preserveAspectRatio="xMidYMid meet" version="1.0"><defs><clipPath id="2e6f68488d"><path d="M 4 4 L 73 4 L 73 73 L 4 73 Z M 4 4 " clip-rule="nonzero"/></clipPath><clipPath id="f20a3ffb54"><path d="M 36.863281 -11.628906 L 86.714844 38.222656 L 38.457031 86.484375 L -11.394531 36.632812 Z M 36.863281 -11.628906 " clip-rule="nonzero"/></clipPath><clipPath id="ff0be95995"><path d="M 36.863281 -11.628906 L 86.714844 38.222656 L 38.457031 86.484375 L -11.394531 36.632812 Z M 36.863281 -11.628906 " clip-rule="nonzero"/></clipPath><clipPath id="759cdf8e5f"><path d="M 36.863281 -11.628906 L 86.714844 38.222656 L 38.457031 86.484375 L -11.394531 36.632812 Z M 36.863281 -11.628906 " clip-rule="nonzero"/></clipPath></defs><g clip-path="url(#2e6f68488d)"><g clip-path="url(#f20a3ffb54)"><g clip-path="url(#ff0be95995)"><g clip-path="url(#759cdf8e5f)"><path fill="#000000" d="M 10.871094 58.253906 C 4.175781 49.027344 2.292969 36.488281 6.445312 25.878906 C 10.695312 14.550781 21.480469 5.933594 33.582031 4.625 C 43.394531 3.253906 53.898438 6.269531 61.058594 13.308594 C 67.589844 19.109375 71.625 27.46875 72.101562 36.160156 C 72.816406 46.132812 68.71875 56.222656 61.429688 62.988281 C 52.289062 72.058594 37.617188 74.800781 25.703125 69.730469 C 19.714844 67.464844 14.988281 63.035156 10.871094 58.253906 Z M 17.648438 63.914062 C 19.003906 66.761719 26.398438 68.019531 24.941406 63.71875 C 22.945312 60.121094 21.5 55.75 17.472656 53.9375 C 14.910156 52.878906 9.929688 47.164062 9.109375 52.398438 C 9.359375 56.058594 12.496094 58.601562 14.679688 61.269531 C 15.605469 62.21875 16.59375 63.109375 17.648438 63.914062 Z M 25.066406 68.46875 C 30.234375 70.828125 36.035156 71.808594 41.671875 71.171875 C 41.101562 67.261719 35.734375 69.121094 32.992188 68.167969 C 30.097656 68.015625 25.5625 64.445312 23.808594 67.804688 C 24.132812 68.183594 24.617188 68.320312 25.066406 68.46875 Z M 8.410156 51.386719 C 11.304688 47.996094 7.292969 43.828125 7.9375 39.976562 C 7.589844 37.707031 9.050781 31.671875 5.320312 33.070312 C 4.601562 39.210938 5.015625 45.828125 8.109375 51.367188 L 8.300781 51.378906 Z M 29.503906 66.472656 C 33.160156 67.402344 37.675781 68.972656 41.054688 66.757812 C 43.558594 63.988281 50.003906 62.246094 48.886719 57.792969 C 46.5 55.085938 46.007812 49.710938 41.496094 49.914062 C 37.144531 49.96875 32.890625 48.246094 28.542969 48.769531 C 26.488281 51.328125 21.539062 53.332031 22.085938 56.808594 C 23.945312 59.921875 25 64.054688 28.160156 66.042969 L 28.804688 66.285156 Z M 13.46875 50.621094 C 16.371094 51.539062 19.898438 56.804688 22.511719 53.621094 C 24.679688 50.945312 29.226562 48.777344 27.804688 44.746094 C 27.300781 40.601562 26.535156 36.492188 25.878906 32.367188 C 23.046875 30.214844 19.46875 27.152344 15.902344 27.472656 C 13.171875 29.683594 9.933594 32.136719 8.503906 35.367188 C 8.339844 39.390625 8.570312 43.609375 10.050781 47.402344 C 10.703125 48.933594 12.101562 49.816406 13.46875 50.621094 Z M 43.476562 70.65625 C 47.855469 70.585938 51.804688 68.363281 55.65625 66.546875 C 58.8125 64.972656 60.503906 61.460938 60.757812 58.136719 C 58.394531 57.097656 55.1875 59.441406 52.472656 59.839844 C 48.621094 60.839844 46.351562 64.261719 42.984375 66.09375 C 40.800781 67.488281 41.347656 69.523438 43.476562 70.65625 Z M 8.511719 33.085938 C 11.335938 30.375 15.539062 28.175781 16.523438 24.203125 C 16.734375 21.265625 20.171875 14.695312 14.800781 15.261719 C 10.679688 17.269531 9.363281 22.21875 7.179688 25.925781 C 6.019531 28.335938 5.160156 32.148438 8.511719 33.085938 Z M 30.726562 47.921875 C 35.191406 48.390625 39.625 49.207031 44.117188 49.339844 C 46.59375 45.960938 47.898438 41.886719 50.214844 38.417969 C 51.851562 34.277344 46.589844 32.511719 44.652344 29.722656 C 42.398438 27.457031 40.316406 24.023438 37.078125 26.742188 C 33.832031 28.148438 30.6875 29.765625 27.480469 31.257812 C 25.707031 34.890625 28.230469 38.890625 28.308594 42.664062 C 28.5625 44.480469 28.054688 47.804688 30.726562 47.921875 Z M 18.511719 26.914062 C 21.609375 28.121094 24.703125 32.03125 28.246094 30.023438 C 32.121094 28.257812 35.992188 26.484375 39.746094 24.472656 C 40.0625 20.90625 43.277344 15.398438 39.734375 13.050781 C 36.660156 11.242188 33.125 8.164062 29.414062 9.886719 C 25.660156 10.980469 22.042969 12.746094 19.167969 15.425781 C 18.699219 18.964844 16.058594 23.546875 18.027344 26.621094 Z M 50.890625 59.335938 C 54.65625 58.082031 59.296875 57.816406 62.328125 55.3125 C 64.609375 52.3125 66.15625 48.765625 66.851562 45.058594 C 64.859375 42.078125 64.769531 35.753906 60.722656 35.59375 C 57.050781 36.324219 51.78125 35.277344 50.269531 39.625 C 49.054688 43.210938 45.9375 46.070312 45.65625 49.929688 C 46.128906 52.996094 48.628906 55.285156 49.804688 58.136719 C 50.113281 58.582031 50.46875 59 50.890625 59.335938 Z M 61.230469 61.867188 C 66.066406 57.542969 68.953125 51.425781 70.5625 45.242188 C 67.265625 43.277344 66.847656 49.851562 65.410156 51.855469 C 64.097656 55.117188 60.609375 58.273438 61.230469 61.867188 Z M 16.65625 14.75 C 20.929688 14.648438 23.503906 10.351562 27.632812 9.59375 C 29.367188 9.421875 34.597656 7.777344 32.222656 6.011719 C 28.296875 5.980469 24.523438 7.898438 21.121094 9.699219 C 19.582031 11.085938 15.320312 12.542969 15.769531 14.546875 L 16.257812 14.671875 Z M 51.84375 35.628906 C 55.1875 35.007812 60.839844 36.140625 62.429688 33.011719 C 62.621094 29.074219 64.574219 24.578125 62.269531 20.988281 C 59.714844 18.253906 57.398438 14.757812 53.78125 13.417969 C 50.144531 13.015625 46.089844 13.402344 42.71875 14.769531 C 41.527344 17.996094 40.359375 22.386719 41.792969 25.824219 C 45.21875 28.972656 48.375 32.484375 51.84375 35.628906 Z M 69.136719 43.832031 C 72.707031 41.789062 71.035156 36.910156 70.925781 33.578125 C 70.371094 30.171875 69.460938 26.765625 67.707031 23.757812 C 62.671875 22.34375 64.335938 29.371094 63.316406 32.214844 C 63.144531 36.464844 65.902344 40.109375 67.511719 43.851562 C 67.886719 44.40625 68.742188 44.292969 69.136719 43.832031 Z M 34.585938 9.222656 C 38.070312 10.703125 41.199219 14.214844 45.320312 13.101562 C 48.066406 12.132812 54.59375 13.886719 53.960938 9.445312 C 51.898438 7.167969 48.433594 6.921875 45.636719 5.949219 C 42.214844 5.253906 38.566406 4.644531 35.144531 5.386719 C 33.84375 6.019531 32.320312 8.757812 34.585938 9.222656 Z M 65.195312 22.734375 C 68.703125 21.8125 63.644531 18.03125 62.625 16.425781 C 60.515625 14.601562 57.667969 9.722656 54.808594 11.527344 C 55.457031 14.753906 59.675781 15.597656 61.273438 18.390625 C 62.503906 19.890625 63.367188 21.84375 65.195312 22.734375 Z M 65.195312 22.734375 " fill-opacity="1" fill-rule="nonzero"/></g></g></g></g></svg>