<?xml version="1.0" encoding="UTF-8"?>
<svg xmlns="http://www.w3.org/2000/svg" xmlns:xlink="http://www.w3.org/1999/xlink" viewBox="0 0 500 500">
  <defs>
    <style>
      .cls-1 {
        stroke: #00913a;
      }

      .cls-1, .cls-2 {
        fill: none;
        stroke-miterlimit: 10;
      }

      .cls-3 {
        fill: url(#_名称未設定グラデーション_36-2);
      }

      .cls-4 {
        fill: #fff8a5;
      }

      .cls-5 {
        fill: url(#_名称未設定グラデーション_26);
      }

      .cls-6 {
        fill: url(#_名称未設定グラデーション_46);
      }

      .cls-7 {
        fill: url(#_名称未設定グラデーション_36-3);
      }

      .cls-8 {
        fill: url(#_名称未設定グラデーション_112);
      }

      .cls-9 {
        fill: url(#_名称未設定グラデーション_124);
      }

      .cls-10 {
        fill: #fae09e;
      }

      .cls-11 {
        fill: url(#_名称未設定グラデーション_88);
      }

      .cls-12 {
        fill: url(#_名称未設定グラデーション_27);
      }

      .cls-13 {
        fill: url(#_名称未設定グラデーション_52);
      }

      .cls-14 {
        fill: url(#_名称未設定グラデーション_36);
      }

      .cls-15 {
        fill: url(#_名称未設定グラデーション_129);
      }

      .cls-16 {
        fill: url(#_名称未設定グラデーション_80);
      }

      .cls-17 {
        fill: #6fba2c;
      }

      .cls-2 {
        stroke: #8fc31f;
      }
    </style>
    <linearGradient id="_名称未設定グラデーション_27" data-name="名称未設定グラデーション 27" x1="286.84" y1="424.31" x2="474.46" y2="236.69" gradientUnits="userSpaceOnUse">
      <stop offset="0" stop-color="#2d2523"/>
      <stop offset="0" stop-color="#00913a"/>
      <stop offset=".05" stop-color="#199a36"/>
      <stop offset=".12" stop-color="#33a433"/>
      <stop offset=".2" stop-color="#49ac30"/>
      <stop offset=".29" stop-color="#5ab22e"/>
      <stop offset=".4" stop-color="#66b62d"/>
      <stop offset=".56" stop-color="#6db92c"/>
      <stop offset="1" stop-color="#6fba2c"/>
    </linearGradient>
    <linearGradient id="_名称未設定グラデーション_26" data-name="名称未設定グラデーション 26" x1="121.68" y1="399.78" x2="186.32" y2="335.14" gradientUnits="userSpaceOnUse">
      <stop offset="0" stop-color="#00913a"/>
      <stop offset=".19" stop-color="#049239"/>
      <stop offset=".38" stop-color="#109737"/>
      <stop offset=".57" stop-color="#249e35"/>
      <stop offset=".76" stop-color="#41a931"/>
      <stop offset=".96" stop-color="#65b62d"/>
      <stop offset="1" stop-color="#6fba2c"/>
    </linearGradient>
    <linearGradient id="_名称未設定グラデーション_36" data-name="名称未設定グラデーション 36" x1="235.62" y1="232.83" x2="257.64" y2="210.81" gradientUnits="userSpaceOnUse">
      <stop offset="0" stop-color="#2d2523"/>
      <stop offset="0" stop-color="#da5682"/>
      <stop offset="1" stop-color="#fff"/>
    </linearGradient>
    <linearGradient id="_名称未設定グラデーション_36-2" data-name="名称未設定グラデーション 36" x1="230.84" y1="229.49" x2="251.17" y2="209.16" xlink:href="#_名称未設定グラデーション_36"/>
    <linearGradient id="_名称未設定グラデーション_46" data-name="名称未設定グラデーション 46" x1="235.72" y1="229.32" x2="260.91" y2="204.13" gradientUnits="userSpaceOnUse">
      <stop offset="0" stop-color="#2d2523"/>
      <stop offset="0" stop-color="#da5682"/>
      <stop offset=".11" stop-color="#db5d87"/>
      <stop offset=".29" stop-color="#e07397"/>
      <stop offset=".51" stop-color="#e896b1"/>
      <stop offset=".75" stop-color="#f2c7d5"/>
      <stop offset="1" stop-color="#fff"/>
    </linearGradient>
    <linearGradient id="_名称未設定グラデーション_52" data-name="名称未設定グラデーション 52" x1="200.15" y1="261.76" x2="281.61" y2="180.3" gradientUnits="userSpaceOnUse">
      <stop offset="0" stop-color="#2d2523"/>
      <stop offset="0" stop-color="#ec739e"/>
      <stop offset=".34" stop-color="#ec759f"/>
      <stop offset=".5" stop-color="#ed7ca4"/>
      <stop offset=".62" stop-color="#ef89ad"/>
      <stop offset=".73" stop-color="#f19cba"/>
      <stop offset=".82" stop-color="#f4b4cb"/>
      <stop offset=".9" stop-color="#f8d1df"/>
      <stop offset=".98" stop-color="#fdf3f7"/>
      <stop offset="1" stop-color="#fff"/>
    </linearGradient>
    <linearGradient id="_名称未設定グラデーション_112" data-name="名称未設定グラデーション 112" x1="127.6" y1="320.19" x2="306.88" y2="140.9" gradientUnits="userSpaceOnUse">
      <stop offset="0" stop-color="#2d2523"/>
      <stop offset="0" stop-color="#da5682"/>
      <stop offset=".11" stop-color="#e36892"/>
      <stop offset=".25" stop-color="#ed7ba2"/>
      <stop offset=".44" stop-color="#ed7da3"/>
      <stop offset=".57" stop-color="#ee86aa"/>
      <stop offset=".68" stop-color="#f095b4"/>
      <stop offset=".77" stop-color="#f3abc3"/>
      <stop offset=".87" stop-color="#f7c6d7"/>
      <stop offset=".95" stop-color="#fbe8ee"/>
      <stop offset="1" stop-color="#fff"/>
    </linearGradient>
    <linearGradient id="_名称未設定グラデーション_36-3" data-name="名称未設定グラデーション 36" x1="236.68" y1="199.33" x2="281.14" y2="154.86" xlink:href="#_名称未設定グラデーション_36"/>
    <linearGradient id="_名称未設定グラデーション_124" data-name="名称未設定グラデーション 124" x1="254.76" y1="277.38" x2="363.52" y2="168.62" gradientUnits="userSpaceOnUse">
      <stop offset="0" stop-color="#2d2523"/>
      <stop offset="0" stop-color="#ec739e"/>
      <stop offset=".19" stop-color="#ec759f"/>
      <stop offset=".3" stop-color="#ed7da3"/>
      <stop offset=".39" stop-color="#ef8caa"/>
      <stop offset=".47" stop-color="#f1a0b3"/>
      <stop offset=".48" stop-color="#f2a1b4"/>
      <stop offset=".69" stop-color="#f2a3b5"/>
      <stop offset=".78" stop-color="#f3aabb"/>
      <stop offset=".85" stop-color="#f4b6c5"/>
      <stop offset=".9" stop-color="#f7c8d3"/>
      <stop offset=".95" stop-color="#fadfe5"/>
      <stop offset=".99" stop-color="#fefbfb"/>
      <stop offset="1" stop-color="#fff"/>
    </linearGradient>
    <linearGradient id="_名称未設定グラデーション_129" data-name="名称未設定グラデーション 129" x1="303.14" y1="162.07" x2="366.44" y2="98.78" gradientUnits="userSpaceOnUse">
      <stop offset="0" stop-color="#2d2523"/>
      <stop offset="0" stop-color="#f2a1b4"/>
      <stop offset=".41" stop-color="#f8cdd7"/>
      <stop offset=".79" stop-color="#fdf1f4"/>
      <stop offset="1" stop-color="#fff"/>
    </linearGradient>
    <linearGradient id="_名称未設定グラデーション_88" data-name="名称未設定グラデーション 88" x1="70.51" y1="243.06" x2="221.98" y2="91.59" gradientUnits="userSpaceOnUse">
      <stop offset="0" stop-color="#2d2523"/>
      <stop offset="0" stop-color="#da5682"/>
      <stop offset=".09" stop-color="#dd5b87"/>
      <stop offset=".19" stop-color="#e66a95"/>
      <stop offset=".24" stop-color="#ec739e"/>
      <stop offset=".34" stop-color="#ed7ea6"/>
      <stop offset=".54" stop-color="#f19ebb"/>
      <stop offset=".79" stop-color="#f8d0de"/>
      <stop offset="1" stop-color="#fff"/>
    </linearGradient>
    <linearGradient id="_名称未設定グラデーション_80" data-name="名称未設定グラデーション 80" x1="212.51" y1="405.61" x2="374.26" y2="243.86" gradientUnits="userSpaceOnUse">
      <stop offset="0" stop-color="#2d2523"/>
      <stop offset="0" stop-color="#da5682"/>
      <stop offset=".12" stop-color="#db5b86"/>
      <stop offset=".28" stop-color="#de6c92"/>
      <stop offset=".46" stop-color="#e487a6"/>
      <stop offset=".66" stop-color="#edacc2"/>
      <stop offset=".87" stop-color="#f7dce5"/>
      <stop offset="1" stop-color="#fff"/>
    </linearGradient>
  </defs>
  <g id="_レイヤー_3" data-name="レイヤー 3">
    <path class="cls-17" d="M300.82,300.27c10.34-10.17,21.8-18.71,34.69-25.24-18.11,8.81-34.47,20.99-46.92,37.69,4.17-4.05,8.07-8.35,12.23-12.45Z"/>
    <path class="cls-12" d="M386.63,240.54c2.46,9.5,3.71,21.71,.29,30.46-.53,4.94-1.58,9.87-2.97,14.48-1.05,3.51-2.35,6.91-3.82,10.21-3.1,7.4-7.11,13.71-11.86,19.36-1.07,1.32-2.16,2.6-3.3,3.85-5.35,5.87-11.36,10.94-17.82,15.18-1.68,1.24-3.39,2.37-5.22,3.19-8.83,5-18.35,8.51-28.1,10.36-.74,.31-1.48,.6-2.24,.85-5.49,1.8-11.34,2.08-16.92,3.51-3.49,2.23-6.85,4.75-10.55,7.12-5.21,3.34-10.65,6.31-16.27,8.67-2.57,1.46-5.25,2.63-8.11,3.38-.53,8.15-.61,16.78-.16,25.92,179.19,90.6,218.75-156.5,218.75-156.5,0,0-43.49-7.7-91.71-.03Z"/>
    <path class="cls-5" d="M201.27,382.92c-9.63-2.51-19.03-8.29-25.64-16.6-3.57-4.49-5.81-9.36-8.07-14.74-1.43-3.38-4.59-4.82-7.81-7.41-8.9-7.17-18.85-15.14-25.99-24.49-.44-.57-.77-1.17-1-1.78-29.9,2.78-54.58,13.22-54.58,13.22,0,0,54.05,151.03,157.19,67.15-.85-6.31-2.01-12.14-3.44-17.56-10.27,2.14-19.96,4.98-30.64,2.19Z"/>
    <path class="cls-1" d="M256.71,376.78s138.24-35.52,185.76-118.56"/>
    <path class="cls-2" d="M236.13,377.7s-76.27,8.31-132.72-49.11"/>
  </g>
  <g id="_レイヤー_4" data-name="レイヤー 4">
    <path class="cls-10" d="M294.06,418.39s69.5-63.27,96.38-54c1.54,3.74,3.17,10.17-18.35,24.6-18.68,13.79-17.09,21.7-15.87,23.55,31.46-1.57,71.3-23.48,94.28-41.92,8.67-3.87,18.86,.52,11.47,14.99-10.23,13.63-65.6,66.1-104.34,65.51-38.74-.59-75.57,10.29-81.39,19.47-2.72-10.22-10.73-38.37,17.82-52.21Z"/>
    <path class="cls-10" d="M206.95,419.09s-67.05-64.82-94.13-56.03c-1.67,3.72-3.51,10.15,17.44,25.04,18.13,14.19,16.27,22.1,14.99,23.93-31.27-2.18-70.2-24.93-92.45-43.87-8.5-4.05-18.8,.16-11.94,14.82,9.72,13.87,63.06,67.59,101.66,67.74,38.6,.15,74.91,11.78,80.39,21.1,3.05-10.21,11.99-38.3-15.96-52.74Z"/>
    <path class="cls-4" d="M421.48,44.83c-22.83,4.85-37.41,27.29-32.56,50.12,2.5,11.75,9.66,21.3,19.12,27.16-6.07-5.12-10.56-12.21-12.34-20.58-4.24-19.98,8.51-39.62,28.5-43.86,19.98-4.24,39.62,8.51,43.86,28.5,1.78,8.37,.56,16.67-2.91,23.82,6.27-9.2,8.93-20.84,6.44-32.59-4.85-22.83-27.29-37.41-50.12-32.56Z"/>
    <path class="cls-4" d="M472.06,135.08c-18.75-5.72-38.75,5.35-44.66,24.73-3.04,9.97-1.76,20.2,2.76,28.56-2.33-6.4-2.68-13.65-.51-20.76,5.18-16.96,22.68-26.65,39.09-21.64,16.41,5.01,25.52,22.82,20.34,39.78-2.17,7.1-6.5,12.93-12.01,16.93,8.41-4.42,15.19-12.18,18.24-22.15,5.92-19.38-4.49-39.73-23.24-45.46Z"/>
    <path class="cls-4" d="M495.81,236.01c-2.66-12.51-16.04-20.26-29.89-17.32-7.13,1.51-12.99,5.57-16.64,10.85,3.16-3.4,7.5-5.96,12.58-7.04,12.12-2.57,23.83,4.21,26.16,15.16,2.32,10.95-5.62,21.91-17.74,24.48-5.08,1.08-10.08,.51-14.35-1.32,5.48,3.34,12.48,4.67,19.61,3.15,13.85-2.94,22.93-15.47,20.27-27.97Z"/>
    <path class="cls-4" d="M468.29,315.79c6.57-7.89,4.82-20.2-3.93-27.48-4.5-3.75-9.97-5.43-15.12-5.11,3.72,.3,7.49,1.78,10.7,4.44,7.65,6.37,9.19,17.14,3.44,24.05-5.75,6.91-16.62,7.34-24.27,.97-3.21-2.67-5.33-6.11-6.31-9.72,.62,5.12,3.26,10.2,7.76,13.95,8.74,7.28,21.16,6.78,27.74-1.11Z"/>
    <path class="cls-4" d="M73.35,45.7c22.74,3.94,37.98,25.57,34.04,48.31-2.03,11.7-8.75,21.41-17.89,27.55,5.81-5.28,9.98-12.46,11.42-20.8,3.45-19.9-9.89-38.83-29.79-42.28s-38.83,9.89-42.28,29.79c-1.44,8.34,.06,16.5,3.76,23.43-6.54-8.86-9.6-20.26-7.57-31.96,3.94-22.74,25.57-37.98,48.31-34.04Z"/>
    <path class="cls-4" d="M26.73,136.76c18.32-6.35,38.49,3.84,45.06,22.77,3.38,9.74,2.49,19.9-1.66,28.33,2.07-6.41,2.14-13.59-.27-20.53-5.75-16.57-23.4-25.49-39.43-19.93-16.03,5.56-24.37,23.5-18.62,40.07,2.41,6.94,6.91,12.53,12.5,16.29-8.48-4.05-15.47-11.47-18.85-21.21-6.57-18.93,2.96-39.43,21.27-45.78Z"/>
    <path class="cls-4" d="M7.02,237.38c2.16-12.46,15.09-20.62,28.89-18.23,7.1,1.23,13.04,5.02,16.84,10.1-3.25-3.25-7.64-5.61-12.69-6.48-12.08-2.09-23.4,5.05-25.29,15.95-1.89,10.9,6.37,21.44,18.44,23.53,5.06,.88,9.98,.13,14.14-1.83-5.29,3.51-12.16,5.08-19.26,3.85-13.8-2.39-23.23-14.43-21.07-26.89Z"/>
    <path class="cls-4" d="M37.18,315.19c-6.79-7.56-5.51-19.78,2.86-27.3,4.31-3.87,9.65-5.74,14.75-5.61-3.67,.44-7.34,2.03-10.4,4.79-7.32,6.58-8.44,17.28-2.5,23.89s16.7,6.64,24.02,.06c3.07-2.76,5.04-6.24,5.87-9.84-.42,5.08-2.84,10.2-7.15,14.07-8.37,7.52-20.66,7.49-27.45-.07Z"/>
  </g>
  <g id="_レイヤー_2" data-name="レイヤー 2">
    <path class="cls-14" d="M242.23,195.41s-29.46,50.51,18.64,42.99c-.6-3.31-25.25-6.91-18.64-42.99Z"/>
    <path class="cls-3" d="M225.09,199.61s9.02,73.05,43.29,26.76c-2.1-2.1-24.65,11.42-43.29-26.76Z"/>
    <path class="cls-6" d="M243.4,188.31s59.3,43.6,2.16,50.85c-.81-2.86,22.02-15.91-2.16-50.85Z"/>
    <path class="cls-13" d="M218.33,241.74s48.7,7.55,66.29,0c8.12-10.26,0-53.55-33.14-58.96s-49.38,21.68-45.32,37.9c4.06,16.21,12.88,56.15,46.35,57.15-23.35,3.71-49.05,12.83-55.82-47.88,0-30.94-7.67-68.37,36.61-59.35,22.01,.3,58.08,22.85,66.2,29.01,8.12,6.16,27.06,15.63-9.47,54.86-36.53,39.23-62.23-2.14-71.7-12.74Z"/>
    <path class="cls-8" d="M166.47,199.61s19.84,1.2,23.45,52.61c13.53,25.25,39.68,65.84,93.8,18.94,29.76-27.06,52.33-50.51,27.97-91.99-26.16-25.25-73.06-86.58-96.51-46-23.45,25.25-92.89,58.62-53.21,138.89,13.53,25.25,29.76,89.29,106.42,48.7-14.43,18.94-66.74,81.17-130.77,9.02-1.8-6.31-26.15-11.72-26.15-58.62-7.22-18.04-9.92-48.7,20.74-75.76,9.92-24.35,53.21-124.44,145.2-75.75,30.66,27.05,69.45,38.33,57.72,97.63-6.31,29.53,15.61,42.16-66.74,93.56-10.82,5.41-51.13,33.13-83.88-17.14-32.75-50.26-11.72-30.36-18.04-94.1Z"/>
    <path class="cls-7" d="M310.7,199.61s-28.86-30.39-39.01-30.38-14.62-15.97-68.24-3.14c0-18.94,38.62-42.06,57.42-12.4,26.83,17.81,43.99,8.2,49.83,45.92Z"/>
    <path class="cls-9" d="M286.42,309.04s55.01-35.4,60.43-67.3c5.41-31.9,7.22-61.67,0-68.88s-24.69-44.76-45.09-54.11c14.77-1.24,90.19,59.52,74.86,136.18-14.43,32.47-29.76,53.21-90.19,54.11Z"/>
    <path class="cls-15" d="M391.04,235.13s.6-73.69-15.63-85.11c-16.23-11.42-25.25-36.08-48.7-39.68-23.45-3.61-54.11-2.3-65.84-3.85s-31.57-22-35.77-23.2-22.25-23.45,24.65-22.85c46.9,.6,30.3-29.46,82.79,7.82,45.88,40.89,61.51,57.39,73.53,74.09s34.87,100.95-15.03,92.79Z"/>
    <path class="cls-11" d="M228.7,98.3s-77.56,17.44-88.38,46.9-12.63,48.1-26.46,57.72-16.84,59.67-7.1,74.91c-12.67-3.28-64.82-89.34,0-141.04,21.53-16.84,43.18-70.95,121.94-38.48Z"/>
    <path class="cls-16" d="M172.78,363.78s70.95,30.94,108.23-37.6c12.03-4.21,84.78,3.01,110.63-64.94,6.01,6.01,9.02,87.18-86.28,90.79-29.16,13.23-103.12,60.77-132.58,11.74Z"/>
  </g>
</svg>